# xmcd CD database file
# Copyright (C) 1993-1996 Ti Kan
#
# Track frame offsets:
#	183
#	12708
#	28158
#	40383
#	53358
#	67233
#	77733
#	93408
#	106533
#	120558
#	132858
#	145083
#	155583
#	168783
#	181308
#
# Disc length: 2550 seconds
#
# Revision: 1
# Processed by: cddbd v1.4b41PL1 Copyright (c) Steve Scherf et al.
# Submitted via: CDValet v3.01 - Copyright (c) 1997 Greg Leichner
#
DISCID=c109f40f
DTITLE=Woody Guthrie - Woody Guthrie
DYEAR=1900
DGENRE=
TTITLE0=Hey lolly lolly
TTITLE1=Buffalo skinners
TTITLE2=John Henry
TTITLE3=Black Jack Davis (Gypsy Davis)
TTITLE4=Worried man blues
TTITLE5=More pretty girls than one
TTITLE6=Ain't gonna be treated this way
TTITLE7=Lonesome day
TTITLE8=Pretty boy Floyd
TTITLE9=Hard, ain't it hard
TTITLE10=Stack hole with sonny
TTITLE11=Cumberland gap
TTITLE12=Sourwood mountain
TTITLE13=Bury me beneath the willow
TTITLE14=Ezekial saw the wheel
EXTD=
EXTT0=
EXTT1=
EXTT2=
EXTT3=
EXTT4=
EXTT5=
EXTT6=
EXTT7=
EXTT8=
EXTT9=
EXTT10=
EXTT11=
EXTT12=
EXTT13=
EXTT14=
PLAYORDER=
